<svg xmlns="http://www.w3.org/2000/svg" width="38" height="48" viewBox="0 0 38 48" fill="none">
  <g clip-path="url(#clip0_280_2427)">
    <path d="M34.6463 0.231752V9.32462C34.6463 9.46095 34.5759 9.51548 34.4491 9.51548H24.6608C24.52 9.51548 24.4636 9.44732 24.4636 9.32462V0H12.9853C12.9008 0 12.8445 0.027265 12.8022 0.0954274L7.30952 9.20193C7.30952 9.20193 7.21093 9.29736 7.12643 9.29736H3.54913C3.40829 9.29736 3.35196 9.2292 3.35196 9.1065V0.204487C3.35196 0.0681625 3.28154 0 3.1407 0H0.197174C0.0704192 0 0 0.0681624 0 0.190855V21.7029C0 21.8393 0.0704192 21.8938 0.197174 21.8938H3.1407C3.28154 21.8938 3.33787 21.8256 3.33787 21.7029V12.7055C3.33787 12.5692 3.40829 12.5146 3.53505 12.5146H7.07009C7.1546 12.5146 7.21093 12.5419 7.25318 12.6101L11.9149 20.3397L12.8445 21.8938H15.6331C15.7739 21.8938 15.8302 21.8256 15.8302 21.7029V20.4624L15.1542 19.3445L10.1685 11.056C10.1685 11.056 10.1263 10.9196 10.1685 10.8651L14.7317 3.3127C14.7317 3.3127 14.8303 3.21727 14.9148 3.21727H20.8864C21.0272 3.21727 21.0976 3.28543 21.0976 3.40812V25.9017C21.0976 26.0381 21.0272 26.0926 20.8864 26.0926H3.35196L0 26.079V47.7819C0 47.9182 0.0704192 47.9727 0.197174 47.9727H16.6753C16.8161 47.9727 16.8725 47.9046 16.8725 47.7819V35.499C16.8725 35.3627 16.802 35.3082 16.6753 35.3082H8.6334C8.49256 35.3082 8.42214 35.3763 8.43623 35.499V38.3073C8.43623 38.4436 8.50665 38.4982 8.6334 38.4982H13.3233C13.4642 38.4982 13.5346 38.5663 13.5205 38.689V44.5646C13.5205 44.7009 13.4501 44.7555 13.3233 44.7555H3.54913C3.40829 44.7555 3.35196 44.6873 3.35196 44.5646V29.4734C3.35196 29.3371 3.42238 29.2826 3.54913 29.2826H21.1117V48H37.9982V40.5567C37.9982 40.4203 37.9278 40.3658 37.8011 40.3658H34.8575C34.7167 40.3658 34.6463 40.434 34.6604 40.5567V44.5919C34.6604 44.7282 34.5899 44.7827 34.4632 44.7827H24.6749C24.5341 44.7827 24.4777 44.7146 24.4777 44.5919V29.5007C24.4777 29.3644 24.5482 29.3099 24.6749 29.3099H34.4632C34.604 29.3099 34.6604 29.378 34.6604 29.5007V33.5359C34.6604 33.6723 34.7308 33.7268 34.8575 33.7268H37.8011C37.9419 33.7268 38.0123 33.6586 37.9982 33.5359V26.3107C37.9982 26.1744 37.9278 26.1199 37.8011 26.1199H24.4636V12.91C24.4636 12.7873 24.5341 12.7191 24.6608 12.7191H34.4491C34.5899 12.7191 34.6604 12.7873 34.6463 12.91V21.7302C34.6463 21.8665 34.7167 21.921 34.8434 21.921H37.787C37.9278 21.921 37.9841 21.8529 37.9841 21.7302V0.231752C37.9841 0.0954274 37.9137 0.0408975 37.787 0.0408975H34.8434C34.7026 0.0408975 34.6463 0.10906 34.6463 0.231752Z" fill="#051E3C"/>
  </g>
  <defs>
    <clipPath id="clip0_280_2427">
      <rect width="38" height="48" fill="white"/>
    </clipPath>
  </defs>
</svg>